<svg xmlns="http://www.w3.org/2000/svg" viewBox="0 0 32 32" fill="#4F46E5">
  <path d="M16 2C11.58 2 8 5.58 8 10c0 1.12.23 2.19.64 3.16L6.5 15.31c-.78.78-.78 2.05 0 2.83l2.19 2.19c.78.78 2.05.78 2.83 0l2.15-2.15C14.81 18.77 15.88 19 17 19h6c1.12 0 2.19-.23 3.16-.64l2.15 2.15c.78.78 2.05.78 2.83 0l2.19-2.19c.78-.78.78-2.05 0-2.83l-2.15-2.15C31.77 12.19 32 11.12 32 10c0-4.42-3.58-8-8-8H16z"/>
  <circle cx="13" cy="12" r="1.5" fill="white"/>
  <circle cx="19" cy="12" r="1.5" fill="white"/>
  <path d="M16 16c-1.1 0-2 .9-2 2s.9 2 2 2 2-.9 2-2-.9-2-2-2z" fill="white"/>
</svg>
